# xmcd CD database file
#
# Track frame offsets:
#	150
#	31620
#	66133
#	84753
#	105491
#	129189
#	149617
#	169986
#
# Disc length: 2616 seconds
#
# Revision: 0
# Processed by: cddbd v1.5.2PL0 Copyright (c) Steve Scherf et al.
# Submitted via: CDex 1.70beta2
#
DISCID=5d0a3608
DTITLE=Kyoko Oyobe New York Trio - The Other Side
DYEAR=2012
DGENRE=Jazz
TTITLE0=Love For Sale
TTITLE1=Matane
TTITLE2=Koin Ya No Gotoshi
TTITLE3=Waltz For "Apple"
TTITLE4=Samba Insane
TTITLE5=Great Unknown
TTITLE6=The Third Eye
TTITLE7=The Oyster Song
EXTD=YEAR: 2012
EXTT0=
EXTT1=
EXTT2=
EXTT3=
EXTT4=
EXTT5=
EXTT6=
EXTT7=
PLAYORDER=
